<svg width="126" height="36" viewBox="0 0 126 36" fill="none" xmlns="http://www.w3.org/2000/svg">
<g filter="url(#filter0_i_114_4)">
<rect width="36" height="36" rx="8" fill="#4424A3"/>
<rect x="0.5" y="0.5" width="35" height="35" rx="7.5" stroke="#5C4BAC"/>
<g filter="url(#filter1_d_114_4)">
<path d="M24.1091 6.00424C24.4813 6.01817 24.8591 5.96615 25.2263 6.04721C25.266 6.0887 25.3077 6.12974 25.3483 6.17123C25.3539 6.28845 25.3538 6.40656 25.3444 6.52377C25.1318 6.78223 24.8605 7.03088 24.8054 7.37143C25.3965 7.59332 25.9107 8.03269 26.1706 8.59506C26.4449 9.23583 26.4817 10.0035 26.1208 10.6205C25.8049 11.2838 25.1101 11.7148 24.3845 11.8539C23.8072 11.9671 23.2014 11.8284 22.6901 11.5619C22.4821 11.7824 22.1984 11.9731 22.1315 12.2826C22.0989 12.5075 22.1177 12.7355 22.114 12.9622C22.1102 15.9833 22.1232 19.0052 22.111 22.0267C22.1208 23.0793 22.0944 24.1323 22.1276 25.1849C22.3431 24.7497 22.6064 24.3313 22.9606 23.9876C23.2246 23.7131 23.5444 23.4979 23.8532 23.2747C23.962 23.2004 24.116 23.1144 24.2468 23.1859C24.4342 23.4159 24.4393 23.7279 24.5192 24.0003C24.5687 23.7601 24.6151 23.5173 24.7028 23.2865C24.9141 22.6563 25.3461 22.1218 25.8317 21.6654C25.9625 21.5185 26.1255 21.3974 26.3259 21.3578C26.4016 21.4633 26.4735 21.5733 26.5212 21.6937C26.7772 22.3368 26.8418 23.0619 26.652 23.7289C26.946 23.4898 27.2132 23.2217 27.4557 22.9339C27.3138 22.7109 27.1614 22.4923 27.0554 22.2503C26.8811 21.853 26.7887 21.4206 26.7975 20.9886C26.806 20.1957 27.1082 19.4287 27.5583 18.7738C27.8422 18.8514 27.996 19.1152 28.1618 19.3285C28.5885 19.909 28.7799 20.6319 28.7468 21.3392C28.9734 20.977 29.2165 20.6168 29.3698 20.2181C29.4105 20.1338 29.3268 20.0769 29.2702 20.0287C28.457 19.4333 28.0279 18.4393 28.0046 17.4701C28.0032 17.0624 28.0154 16.64 28.1774 16.2572C28.3157 16.2685 28.4539 16.2959 28.5759 16.3626C29.2492 16.7217 29.8175 17.2832 30.11 17.9759C30.1974 17.6119 30.2939 17.2378 30.2556 16.8617C29.7681 16.6754 29.3099 16.4132 28.9196 16.0736C28.6607 15.8472 28.4708 15.5606 28.2936 15.2728C28.0301 14.8448 27.908 14.3521 27.8337 13.8636C27.8089 13.7315 27.844 13.5997 27.8786 13.473C28.3866 13.4685 28.8771 13.6695 29.3015 13.9271C29.0304 13.652 28.8549 13.3073 28.6852 12.9691C28.3188 12.1351 28.2907 11.1758 28.5739 10.3148C28.6085 10.1948 28.679 10.0894 28.7575 9.99155C28.921 10.024 29.0716 10.0995 29.1931 10.2113C29.4833 10.4711 29.7771 10.7349 29.9968 11.056C30.4744 11.6983 30.7539 12.4697 30.8151 13.2572C30.974 13.0372 31.1757 12.8517 31.3757 12.6673C31.5584 12.5018 31.7676 12.3551 32.0143 12.2933C32.1646 12.5034 32.2117 12.7575 32.2663 13.0023C32.4425 13.8191 32.3305 14.7016 31.8991 15.43C31.6519 15.8939 31.2682 16.277 30.8239 16.5687C30.8146 16.7283 30.8043 16.8881 30.8024 17.0482C31.2132 16.5882 31.767 16.2783 32.3376 16.0374C32.4263 16.0005 32.5164 15.9644 32.6052 15.9261C32.7365 15.8846 32.877 15.8389 33.0163 15.8773C33.0644 15.9075 33.094 15.9689 33.0944 16.0247C33.1047 16.3909 33.0372 16.7553 32.9274 17.1048C32.7148 17.8575 32.2412 18.5481 31.5759 18.9974C31.275 19.1913 30.9524 19.356 30.6081 19.4652C30.4792 19.5008 30.3513 19.5383 30.2243 19.5775C30.1762 19.7385 30.1166 19.8967 30.0436 20.0492C30.7298 19.7 31.5076 19.5049 32.2858 19.5306C32.4114 19.5316 32.5308 19.5769 32.6462 19.6224C32.6294 19.8013 32.5575 19.9683 32.4772 20.1283C32.158 20.8066 31.6528 21.4263 30.9724 21.7953C30.7279 21.9423 30.4553 22.0359 30.1833 22.1234C29.7309 22.2587 29.2556 22.2594 28.7878 22.222C28.7181 22.3226 28.6344 22.4142 28.5466 22.5003C28.9331 22.4255 29.3307 22.4547 29.7224 22.4642L29.7516 22.4867C30.176 22.5363 30.5959 22.6391 30.9899 22.8001C31.0502 22.8326 31.1396 22.8576 31.1481 22.9359C31.1687 23.0392 31.0811 23.1209 31.0241 23.1976C30.5544 23.7333 29.9369 24.1635 29.236 24.3646L29.2048 24.3822C28.4076 24.5977 27.5414 24.601 26.7526 24.349C26.5998 24.4793 26.4387 24.6014 26.2751 24.7191C26.7677 24.7173 27.2682 24.7061 27.7477 24.8324C28.1324 24.9122 28.4951 25.0608 28.8503 25.2201C28.9529 25.2696 29.0455 25.3349 29.1384 25.3997C29.1314 25.5044 29.0935 25.607 29.0075 25.6751C28.4435 26.1428 27.7581 26.4862 27.0212 26.6058C26.2766 26.7316 25.5006 26.6351 24.7995 26.3695C24.6512 26.2992 24.5107 26.2156 24.36 26.1507C24.3054 26.1201 24.2445 26.1503 24.195 26.1742C23.9669 26.291 23.7499 26.4268 23.5241 26.5472C24.4827 26.6758 25.3982 27.0854 26.1198 27.7074C26.2123 27.7908 26.3351 27.9313 26.238 28.0531C26.1188 28.2064 25.9079 28.2449 25.7341 28.3158C24.9447 28.6049 24.0664 28.6708 23.2438 28.4818C22.5405 28.3225 21.898 27.9674 21.3395 27.5326C20.8546 27.6597 20.383 27.832 19.9069 27.9867C19.5237 28.1143 19.1378 28.2334 18.7653 28.389C19.1228 28.5144 19.4552 28.6949 19.8015 28.8451C20.2701 29.0823 20.7623 29.2908 21.1852 29.6019C21.1979 29.7426 21.1658 29.9041 21.0192 29.9691C20.917 30.0344 20.8042 29.9504 20.7126 29.9066C20.2807 29.6526 19.837 29.4154 19.3757 29.2142C18.9574 29.0252 18.5446 28.8229 18.1188 28.6497C18.053 28.6103 17.9862 28.6661 17.9255 28.6859C17.0662 29.0782 16.1967 29.4581 15.3884 29.9437C15.3178 29.9861 15.232 29.9882 15.153 30.0003C15.0824 29.9219 14.997 29.8472 14.9684 29.7435C14.9737 29.6782 15.0041 29.6193 15.0251 29.5589C15.7606 29.1057 16.5531 28.7472 17.3395 28.3851C17.3433 28.3747 17.3504 28.3535 17.3542 28.3431C16.7812 28.1677 16.2214 27.9524 15.6432 27.7914C15.3736 27.7206 15.1287 27.5649 14.8483 27.5365C14.424 27.8048 14.0085 28.0975 13.5309 28.2757C12.909 28.5553 12.2124 28.6252 11.5339 28.5765C11.2983 28.5355 11.0593 28.5059 10.8298 28.4378C10.657 28.3765 10.4833 28.3183 10.3073 28.2669C10.1396 28.2006 9.98083 28.1032 9.9079 27.9359C10.098 27.6714 10.3771 27.4874 10.6442 27.3031C11.1074 26.9792 11.6433 26.7527 12.2009 26.6331L12.2311 26.6175C12.391 26.5887 12.5509 26.5577 12.7136 26.5433C12.4509 26.4301 12.1943 26.3032 11.9499 26.1566C11.9294 26.1534 11.8879 26.1476 11.8669 26.1449C11.0518 26.5459 10.1156 26.7566 9.20282 26.6195C8.82586 26.5518 8.46048 26.4348 8.112 26.2806C7.7867 26.107 7.46044 25.9252 7.18329 25.6839C7.13421 25.6307 7.05837 25.5807 7.06024 25.5023C7.04827 25.4091 7.14003 25.355 7.20868 25.3099C8.02844 24.8733 8.97471 24.6611 9.91083 24.722C9.73977 24.602 9.5869 24.4581 9.4079 24.349C9.17444 24.435 8.92612 24.4643 8.68427 24.5179C8.08143 24.5693 7.46742 24.5238 6.88934 24.347C6.31731 24.1553 5.77906 23.8518 5.35516 23.431C5.20382 23.2764 5.00494 23.1162 5.00751 22.8841C5.45894 22.6704 5.9575 22.5784 6.44305 22.4652C6.84126 22.444 7.24437 22.4326 7.63837 22.5052C7.54679 22.3966 7.45297 22.2887 7.34833 22.1917C6.69735 22.3225 6.02383 22.1757 5.42938 21.9115C4.96868 21.6928 4.54863 21.3855 4.23505 20.9906C3.97612 20.7132 3.81239 20.371 3.65302 20.0345C3.59742 19.9182 3.57027 19.7926 3.55438 19.6664C3.6114 19.6325 3.66656 19.5926 3.72919 19.5687C4.55356 19.4992 5.41708 19.6332 6.13446 20.0462C6.05828 19.8812 5.98657 19.7136 5.93329 19.5404C5.36454 19.4673 4.84699 19.1867 4.40302 18.848C3.99504 18.5544 3.71995 18.1288 3.48114 17.7035C3.23951 17.1518 3.07628 16.559 3.09637 15.9564C3.18419 15.8446 3.32337 15.8576 3.45184 15.8734C3.76023 15.9974 4.07322 16.1155 4.362 16.2796C4.73216 16.4763 5.05031 16.7497 5.35223 17.0316C5.3499 16.876 5.34455 16.7204 5.33661 16.5648C4.92158 16.2531 4.51591 15.9032 4.27802 15.4417C3.73055 14.5429 3.74217 13.4269 4.04169 12.4505C4.09681 12.3923 4.1425 12.2861 4.24481 12.3167C4.40031 12.3645 4.53269 12.4618 4.65692 12.5619C4.9023 12.7784 5.16059 12.9857 5.37372 13.2337C5.37933 12.342 5.79383 11.4977 6.36591 10.8148C6.56259 10.5835 6.79954 10.3899 7.02704 10.1888C7.15318 10.0806 7.30401 9.99132 7.47919 9.9935C7.56931 10.1517 7.63564 10.3212 7.67255 10.4984C7.77581 10.9647 7.84081 11.4484 7.77118 11.9242C7.70617 12.6738 7.32543 13.3517 6.86884 13.9456C7.01596 13.851 7.16832 13.7611 7.3327 13.6966C7.6388 13.5798 7.95279 13.4484 8.28973 13.4632C8.33694 13.5895 8.36316 13.7243 8.3454 13.8587C8.25237 14.7543 7.80538 15.6198 7.09052 16.2035C6.72369 16.488 6.31483 16.7461 5.85223 16.8548C5.86719 17.0691 5.89386 17.2825 5.92938 17.4945C5.94854 17.6916 5.99647 17.8841 6.05536 18.0736C6.08948 17.9766 6.12148 17.8792 6.15887 17.7835C6.45565 17.2059 6.93673 16.7213 7.50262 16.3822C7.6461 16.3073 7.80428 16.192 7.97626 16.2425C8.06132 16.3485 8.08753 16.4842 8.10809 16.6136C8.15801 16.8971 8.16083 17.1854 8.16083 17.472C8.16316 18.0967 7.96465 18.7166 7.6286 19.2484C7.40473 19.6005 7.0768 19.8699 6.7829 20.1644C6.93199 20.5726 7.18094 20.9355 7.40106 21.3099C7.39593 20.9004 7.43184 20.4854 7.57391 20.097C7.71316 19.6867 7.97427 19.3296 8.24384 18.9906C8.33401 18.8923 8.45583 18.7503 8.60907 18.8021C8.75848 18.9391 8.82565 19.1365 8.91571 19.3109C9.26811 20.0033 9.46834 20.8005 9.31317 21.5687C9.24821 21.8753 9.15526 22.1814 8.99872 22.4574C8.90899 22.6178 8.78299 22.7581 8.69891 22.9222C8.9433 23.213 9.2464 23.4508 9.50946 23.7249C9.2557 22.937 9.41028 22.0556 9.8454 21.3529C9.93467 21.3795 10.0322 21.3986 10.1042 21.4613C10.5912 21.8866 11.041 22.3666 11.3317 22.9408C11.5074 23.278 11.5572 23.6561 11.6628 24.016C11.7203 23.7206 11.7979 23.426 11.946 23.1595C12.0514 23.187 12.1613 23.2081 12.2565 23.2621C12.7935 23.6044 13.3034 24.0082 13.6628 24.5296C13.8122 24.742 13.9184 24.9785 14.0329 25.2093C14.0404 24.9551 14.0441 24.7009 14.0456 24.4466V20.266C14.0443 19.6346 14.0449 19.0034 14.0573 18.3724C14.0372 17.1849 14.0508 15.9959 14.0475 14.808C14.0924 14.1034 14.0117 13.3967 14.0622 12.6917C14.0757 12.4466 14.0707 12.1763 13.9079 11.973C13.7915 11.8314 13.6681 11.6913 13.5261 11.5736C13.3855 11.5921 13.2618 11.667 13.1315 11.7162C12.2361 12.0894 11.1266 11.8341 10.4606 11.1576C9.99286 10.6808 9.72595 10.008 9.80634 9.34995C9.86956 8.46428 10.5345 7.67524 11.3845 7.36264C11.3679 6.98628 10.9746 6.79725 10.8181 6.48666C10.7994 6.37032 10.7866 6.2344 10.8679 6.13608C10.9492 6.04091 11.0808 6.00973 11.2028 6.00522C11.5939 5.99936 11.9845 6.00483 12.3747 6.02963C13.137 5.99039 13.9015 6.00514 14.6647 6.00424C15.7863 6.00559 16.9084 6.00251 18.03 6.00522C18.3243 6.02504 18.6209 6.0337 18.9147 6.00034C19.2432 6.00709 19.5717 6.00499 19.9001 6.00229C21.3027 6.00725 22.706 6.00108 24.1091 6.00424ZM12.8884 27.0121C12.0863 27.0878 11.3286 27.4174 10.6794 27.8685C11.3691 28.1012 12.1337 28.1796 12.8444 27.9876C13.367 27.8442 13.8508 27.5918 14.2985 27.2982C14.1118 27.2153 13.9186 27.1479 13.7263 27.0794C13.4595 26.9776 13.1686 26.9976 12.8884 27.0121ZM22.7009 27.014C22.428 27.0654 22.1789 27.1931 21.9177 27.2806C21.9191 27.2991 21.9221 27.3358 21.9235 27.3539C22.4011 27.6641 22.929 27.9153 23.4977 28.0208C24.158 28.1655 24.8459 28.0733 25.488 27.8929C25.4903 27.8776 25.4944 27.8482 25.4968 27.8333C25.1202 27.5831 24.7264 27.3438 24.2858 27.2152C23.7731 27.0704 23.2374 26.954 22.7009 27.014ZM18.4977 11.4945C17.112 11.4931 15.7163 11.4936 14.3474 11.7259C14.4455 11.9157 14.5757 12.1081 14.5612 12.3294C14.5393 16.916 14.5648 21.5026 14.5466 26.0892C14.5601 26.2853 14.4539 26.4598 14.3688 26.6302C14.3674 26.6622 14.3644 26.7271 14.363 26.7591C14.5384 26.8325 14.7168 26.8992 14.8952 26.9652V12.0003H15.2956V27.0003H14.989C15.207 27.0802 15.4259 27.158 15.6432 27.2396C16.4336 27.4899 17.2125 27.7758 17.9968 28.0423C18.1092 28.0839 18.2268 28.0382 18.3327 28.0003C19.0997 27.7008 19.89 27.4621 20.6686 27.1937C20.8352 27.1226 21.0067 27.0624 21.1774 27.0003C21.0277 27.0003 20.9019 27.0003 20.8952 27.0003V12.0003C20.9036 12.0003 21.0999 12.0003 21.2956 12.0003V26.9554C21.4659 26.8918 21.6344 26.8247 21.7946 26.7396C21.7007 26.5159 21.5991 26.2861 21.6061 26.0404C21.5832 21.4997 21.6056 16.959 21.5925 12.4183C21.5691 12.1545 21.7248 11.9292 21.8229 11.6947C20.721 11.5553 19.6095 11.4886 18.4977 11.4945ZM16.2956 27.0003H15.8952V12.0003C15.9037 12.0003 16.1 12.0003 16.2956 12.0003V27.0003ZM17.1999 27.0003H16.7995V12.0003C16.7995 12.0003 17 12.0003 17.1999 12.0003V27.0003ZM18.1052 27.0003H17.7048V12.0003C17.7096 12.0003 17.9076 12.0003 18.1052 12.0003V27.0003ZM19.2956 27.0003H18.8952V12.0003C19.0951 12.0003 19.2956 12.0003 19.2956 12.0003V27.0003ZM20.2956 27.0003C20.0999 27.0003 19.9036 27.0003 19.8952 27.0003V12.0003C19.9036 12.0003 20.0999 12.0003 20.2956 12.0003V27.0003ZM23.9763 23.805C23.006 24.3774 22.3817 25.4527 22.3845 26.5492C22.6881 26.4139 22.9824 26.2596 23.2702 26.0941C23.4095 26.0075 23.5679 25.9248 23.6413 25.7728C23.8444 25.3933 23.9701 24.9762 24.0192 24.5521C24.0459 24.3022 24.0034 24.0527 23.9763 23.805ZM12.1852 23.8119C12.1572 24.0878 12.1032 24.3661 12.1462 24.6439C12.1794 25.0253 12.3043 25.3977 12.4968 25.7318C12.5958 25.9113 12.7916 26.0059 12.9636 26.1087C13.2195 26.262 13.4867 26.3967 13.7604 26.5179C13.7693 26.1873 13.7246 25.8554 13.61 25.5433C13.4502 25.1145 13.2366 24.6902 12.8923 24.3705C12.6741 24.1658 12.4654 23.9382 12.1852 23.8119ZM9.56903 25.1956C8.96817 25.1926 8.38226 25.3487 7.82391 25.5521C8.02671 25.7041 8.26092 25.8048 8.48895 25.9144C8.56794 25.9442 8.64676 25.9751 8.72528 26.0062C8.75098 26.013 8.80166 26.0268 8.82782 26.0335C9.27823 26.172 9.75757 26.1832 10.2253 26.1449C10.6145 26.1025 10.987 25.9772 11.3561 25.8568C11.3622 25.846 11.3745 25.8242 11.3806 25.8138C11.0525 25.6248 10.7443 25.3986 10.3845 25.2669C10.1223 25.1813 9.84145 25.1997 9.56903 25.1956ZM26.9069 25.1956C26.4981 25.188 26.0744 25.1799 25.6843 25.3138C25.3594 25.455 25.0673 25.6571 24.7556 25.8226C25.1874 26.0017 25.6468 26.131 26.1179 26.1576C26.9142 26.2039 27.7334 25.9898 28.3815 25.5374C27.9086 25.3642 27.4182 25.2024 26.9069 25.1956ZM24.5202 24.7122C24.4767 24.9874 24.3906 25.2534 24.2975 25.516C24.4208 25.4331 24.5408 25.3453 24.6589 25.2552C24.5874 25.0811 24.5431 24.8981 24.5202 24.7122ZM11.6608 24.6527C11.5996 24.7163 11.5857 24.8036 11.5866 24.8871C11.546 24.9912 11.5048 25.0949 11.4655 25.1996C11.5907 25.3281 11.7483 25.4195 11.903 25.5111C11.8339 25.3722 11.7595 25.2341 11.7165 25.0853C11.7039 24.9401 11.6884 24.7952 11.6608 24.6527ZM26.0583 22.1361C25.8784 22.3444 25.6713 22.5332 25.5241 22.766C25.1402 23.3291 24.9525 24.0167 25.0075 24.6898C25.0215 24.7908 25.0025 24.9125 25.0759 24.9964C25.3347 24.8494 25.5623 24.6556 25.7722 24.4496C25.9114 24.3134 26.0295 24.1538 26.0964 23.973C26.3015 23.379 26.3362 22.7204 26.1315 22.1214C26.1138 22.125 26.0765 22.1325 26.0583 22.1361ZM10.1208 22.1292C10.0998 22.1022 10.0242 22.0697 10.029 22.1341C9.83833 22.6969 9.8732 23.3156 10.0349 23.8812C10.0783 24.0538 10.1675 24.2154 10.2907 24.347C10.5216 24.5852 10.7779 24.8041 11.07 24.971C11.1537 24.6278 11.1715 24.2713 11.1266 23.9222C11.0028 23.2395 10.6282 22.6136 10.1208 22.1292ZM28.2868 24.0736C28.0532 24.0448 27.8168 24.0488 27.5837 24.0736C27.8159 24.116 28.0541 24.1159 28.2868 24.0736ZM8.00946 23.0902C7.28042 22.8773 6.48163 22.9056 5.76239 23.141C5.96565 23.3376 6.18863 23.5169 6.44794 23.641C7.21818 24.0379 8.13837 24.1807 8.98993 23.9701C8.79924 23.7396 8.55372 23.5585 8.34247 23.346C8.23785 23.2545 8.15235 23.1281 8.00946 23.0902ZM30.3727 23.1126C29.6769 22.9242 28.9234 22.8698 28.2233 23.0687C28.0432 23.1133 27.9241 23.26 27.7985 23.3812C27.6018 23.5833 27.3856 23.7673 27.1931 23.973C27.551 24.0952 27.9253 23.9908 28.2927 24.0404C28.8524 24.0241 29.3972 23.8302 29.8659 23.5394C30.0519 23.4203 30.2601 23.3066 30.3727 23.1126ZM27.7067 19.5296C27.5852 19.784 27.4478 20.0364 27.3903 20.3138C27.1871 21.0783 27.3299 21.9236 27.7897 22.5785C27.9594 22.3489 28.1348 22.1118 28.196 21.8304C28.3647 21.0411 28.1741 20.1945 27.7067 19.5296ZM8.46063 19.4896C8.33584 19.7075 8.19265 19.9175 8.09637 20.1497C7.89034 20.6562 7.81401 21.2167 7.90887 21.7542C7.98086 22.0605 8.16595 22.3313 8.38934 22.555C8.56321 22.2298 8.73972 21.8975 8.80048 21.5326C8.9579 20.8376 8.78866 20.1142 8.46063 19.4896ZM31.9616 20.0521C31.3344 20.0553 30.7182 20.2426 30.1569 20.5033C29.9191 20.6079 29.7044 20.7726 29.5759 20.9945C29.4202 21.2534 29.2632 21.5126 29.0739 21.7503C29.7095 21.7661 30.3507 21.6028 30.8835 21.265C31.3312 20.9456 31.7083 20.5325 31.9616 20.0521ZM4.32782 20.263L4.33075 20.2621C4.57657 20.6571 4.90114 21.0085 5.29364 21.2718C5.80629 21.6268 6.45288 21.7588 7.07489 21.7494C6.87583 21.4873 6.72087 21.1981 6.54657 20.9212C6.36204 20.6372 6.03181 20.4949 5.72626 20.3646C5.38518 20.2122 5.01512 20.1276 4.64227 20.0902C4.5058 20.041 4.35068 20.0622 4.20673 20.055C4.24692 20.124 4.28856 20.1927 4.32782 20.263ZM7.63251 16.8763C6.96047 17.3282 6.43924 18.0226 6.33075 18.8177C6.30693 19.1333 6.48547 19.4153 6.56219 19.7132C6.75328 19.5207 6.94571 19.3282 7.10223 19.1078C7.36625 18.7745 7.52642 18.3752 7.61102 17.9662C7.67364 17.6072 7.71329 17.2362 7.63251 16.8763ZM28.5339 16.8978C28.5087 17.1529 28.5021 17.4103 28.5212 17.6664C28.602 18.4223 28.9789 19.141 29.5515 19.6615C29.5725 19.6628 29.6144 19.665 29.6354 19.6664C29.7322 19.3425 29.9044 19.0124 29.8161 18.6683C29.6623 17.9421 29.1798 17.2938 28.5339 16.8978ZM32.5495 16.4593C31.9 16.7547 31.2895 17.1575 30.8483 17.7113C30.5782 18.1001 30.5004 18.5766 30.4079 19.0267C30.8476 18.8535 31.2729 18.632 31.6266 18.3226C31.8846 18.0768 32.0944 17.7832 32.2458 17.4652C32.3985 17.1465 32.4743 16.801 32.5495 16.4593ZM3.6413 16.4759C3.68102 16.8724 3.80212 17.2625 4.00262 17.6117C4.36347 18.2836 5.02471 18.7973 5.77802 19.0052C5.72239 18.6873 5.61845 18.3794 5.51239 18.0746C5.36096 17.6776 5.04539 17.3707 4.7243 17.0951C4.40291 16.8296 4.0089 16.6697 3.6413 16.4759ZM28.36 14.0472C28.3741 14.1703 28.4056 14.2905 28.4401 14.4095C28.456 14.4533 28.4726 14.4981 28.489 14.5423C28.6567 14.9642 28.9095 15.3519 29.2438 15.6693C29.5275 15.9696 29.9083 16.1542 30.2643 16.3607C30.2531 15.9458 30.1887 15.5222 30.0261 15.1371C29.6358 14.5908 29.0064 14.2421 28.36 14.0472ZM7.82782 14.0521C7.24556 14.2072 6.71403 14.526 6.2995 14.9486C6.19768 15.0531 6.09845 15.1678 6.05634 15.308C5.94887 15.6461 5.86372 15.9972 5.88934 16.3539C6.13969 16.2267 6.38726 16.0927 6.61005 15.9232C7.21197 15.4893 7.65089 14.8436 7.78876 14.1283C7.79855 14.1094 7.81799 14.0715 7.82782 14.0521ZM31.7712 12.9974C31.2543 13.3772 30.8744 13.916 30.6393 14.4964C30.5329 14.7358 30.5497 15.0066 30.6179 15.2533C30.6838 15.5 30.7245 15.7525 30.7722 16.0033C31.1039 15.6727 31.4383 15.3228 31.6169 14.889C31.8735 14.2927 31.8614 13.6262 31.7712 12.9974ZM4.41083 12.973C4.33751 13.3099 4.34472 13.6557 4.35126 13.9984C4.35833 14.3059 4.43734 14.6098 4.55927 14.8929C4.72987 15.3191 5.04428 15.6737 5.37469 15.9935C5.43264 15.7035 5.48429 15.4121 5.55438 15.1244C5.62633 14.8177 5.55651 14.502 5.42059 14.222C5.21313 13.7228 4.81455 13.3302 4.41083 12.973ZM7.19501 10.7044C6.96797 10.9254 6.73978 11.1474 6.55243 11.4007C6.21498 11.8464 5.99378 12.3703 5.89423 12.9124C5.80875 13.3413 5.82858 13.7961 6.00848 14.2015C6.21179 13.8687 6.50381 13.5978 6.71552 13.2708C7.22442 12.5253 7.43568 11.5758 7.19501 10.7044ZM28.9245 11.0648C28.788 11.8429 29.0238 12.6436 29.4538 13.3021C29.6604 13.62 29.9172 13.903 30.1579 14.1966C30.4578 13.4231 30.2536 12.5594 29.8932 11.8392C29.6717 11.409 29.3469 11.0415 29.0007 10.7005C28.9736 10.8213 28.9469 10.9426 28.9245 11.0648ZM12.4665 7.70834C12.0993 7.71512 11.7192 7.7464 11.3903 7.91635C10.5916 8.29569 10.1391 9.24935 10.3952 10.0775C10.5789 10.6596 11.0678 11.1501 11.6794 11.3148C12.2 11.4708 12.7774 11.3929 13.2536 11.1449C13.6181 10.9483 13.9312 10.6143 13.9968 10.2044C14.0743 9.89059 13.9672 9.56104 13.7888 9.29721C13.6093 9.02846 13.284 8.90454 12.9831 8.80893C12.5162 8.65918 11.9486 8.84273 11.6911 9.25229C11.5748 9.42592 11.5715 9.64516 11.6042 9.84311C11.6529 10.0618 11.8367 10.2219 12.0349 10.3206C12.189 10.3464 12.3524 10.3895 12.5056 10.3363C12.7031 10.2825 12.8806 10.0971 12.8278 9.88705C12.8367 9.78335 12.7267 9.74411 12.6599 9.68686C12.5351 9.74098 12.4136 9.80748 12.28 9.83725C12.1802 9.84643 12.1354 9.73995 12.072 9.68588C12.072 9.64529 12.0734 9.56287 12.0739 9.52182C12.1552 9.41544 12.2369 9.2942 12.3747 9.25229C12.5116 9.2144 12.6578 9.22057 12.7975 9.23862C13.21 9.31729 13.4681 9.78502 13.3307 10.1624C13.2446 10.4839 12.9484 10.7266 12.6237 10.8119C12.026 10.9953 11.3218 10.6397 11.1227 10.0687C11.0143 9.73948 11.0201 9.36786 11.1911 9.05893C11.3337 8.74454 11.6464 8.54536 11.9577 8.40463C12.2479 8.27264 12.5778 8.26911 12.8913 8.29526C13.3212 8.36609 13.7123 8.56395 14.1208 8.70151C14.7288 8.90981 15.3778 8.99576 16.0222 8.98178C16.9719 8.989 17.9216 8.97019 18.8708 9.00131C19.4779 8.96387 20.0874 9.00096 20.695 8.97299C21.0932 8.9572 21.4837 8.86812 21.8688 8.77475L21.8981 8.76108C22.2471 8.66414 22.5703 8.50131 22.9108 8.38315C23.1057 8.35654 23.301 8.32066 23.4977 8.30893C23.7125 8.30806 23.9259 8.33793 24.1393 8.36362C24.4819 8.48224 24.7775 8.71909 24.9636 9.02084C25.1308 9.3 25.1503 9.63751 25.1013 9.94955C25.0213 10.2215 24.8606 10.4841 24.612 10.6419C24.2984 10.8349 23.9019 10.9145 23.5407 10.8099C23.2361 10.6958 22.9493 10.4781 22.8581 10.1634C22.7567 9.88377 22.8765 9.56733 23.1032 9.37924C23.3813 9.14552 23.8617 9.16767 24.0856 9.46225C24.0889 9.55687 24.09 9.65181 24.0895 9.74643C24.0256 9.77886 23.9571 9.85462 23.8815 9.80405C23.733 9.72694 23.5685 9.67001 23.405 9.74252C23.3873 9.76987 23.3525 9.8237 23.3347 9.85092C23.3122 10.0268 23.3908 10.2149 23.5661 10.2884C23.9478 10.5007 24.478 10.2554 24.5866 9.85483C24.6217 9.65007 24.625 9.41956 24.5026 9.23959C24.3536 9.01593 24.1107 8.85138 23.8425 8.79135C23.4242 8.69843 22.9796 8.8264 22.6393 9.06772C22.3872 9.25718 22.2486 9.55511 22.1813 9.84995C22.1035 10.2305 22.2886 10.618 22.5651 10.8831C22.8628 11.1704 23.2757 11.3073 23.6813 11.3822C23.9655 11.4318 24.2527 11.3721 24.528 11.3031C25.035 11.147 25.4902 10.7933 25.694 10.3109C25.8707 9.93886 25.8859 9.51879 25.8005 9.12241C25.7598 9.00831 25.722 8.89208 25.6716 8.78159C25.3575 8.08516 24.5497 7.67369 23.779 7.70346C20.0083 7.69444 16.2372 7.70068 12.4665 7.70834ZM18.403 10.5316C17.8267 10.4856 17.2503 10.5482 16.6735 10.5423C15.9072 10.5874 15.1375 10.6133 14.3786 10.7328C14.2842 10.9123 14.1725 11.083 14.0397 11.2386C14.5748 11.1894 15.1063 11.0977 15.6442 11.0765C16.0793 11.0269 16.5193 11.0537 16.9557 11.014C18.1554 10.9883 19.3561 10.9936 20.5544 11.0599C21.0072 11.0982 21.4595 11.1454 21.9118 11.1927C21.9879 11.2089 22.0652 11.2237 22.1423 11.2376C22.1338 11.2191 22.1174 11.1823 22.1091 11.1644C21.9769 11.0219 21.8657 10.8636 21.7751 10.6937C20.6557 10.5805 19.5289 10.5063 18.403 10.5316ZM14.3786 9.33627C14.4949 9.60045 14.5977 9.87258 14.6491 10.1566C14.9075 10.1534 15.1656 10.1391 15.4235 10.1283C15.3072 9.90365 15.2298 9.65523 15.0915 9.4437C14.8519 9.41891 14.6107 9.40294 14.3786 9.33627ZM21.2575 9.45053C21.1922 9.45908 21.128 9.46737 21.0632 9.47592C20.9739 9.68247 20.8829 9.88897 20.7927 10.0951C21.0463 10.1338 21.3038 10.1406 21.5602 10.1478C21.614 9.86373 21.6708 9.57375 21.8278 9.3226C21.6391 9.37175 21.4477 9.4086 21.2575 9.45053ZM19.4255 9.47495C19.3545 9.67189 19.2761 9.86641 19.1911 10.058C19.5131 10.0611 19.8363 10.0585 20.1569 10.0941C20.3176 9.93083 20.4376 9.7306 20.4909 9.5101C20.4746 9.50335 20.4424 9.48901 20.4265 9.48178C20.0937 9.46148 19.7592 9.48352 19.4255 9.47495ZM16.7888 9.47299C16.4299 9.46626 16.0729 9.50297 15.7145 9.49936C15.7963 9.70504 15.884 9.91133 16.0153 10.0931C16.2513 10.0936 16.4874 10.0873 16.7233 10.0814C16.8171 10.0697 16.9118 10.0613 17.0065 10.054C16.9295 9.86203 16.8602 9.66726 16.7888 9.47299ZM18.8239 9.47495C18.3426 9.48306 17.8599 9.46246 17.3786 9.48862C17.416 9.69548 17.5181 9.88217 17.6325 10.058C17.9424 10.0589 18.2523 10.0552 18.5622 10.0511C18.6814 9.87475 18.7912 9.68604 18.8239 9.47495ZM24.6794 6.56674C20.2814 6.57035 15.8835 6.56298 11.486 6.57651C11.6435 6.77399 11.7915 6.98036 11.9059 7.20444C13.495 7.21391 15.0844 7.20323 16.6735 7.20639C19.216 7.20188 21.759 7.21383 24.3015 7.20346C24.4038 6.97929 24.5242 6.7616 24.6794 6.56674Z" fill="#F6F3FE"/>
</g>
</g>
<path d="M77.1479 11.9387C77.6509 11.9387 78.154 11.9387 78.6581 11.9387C78.6581 12.4516 78.6581 12.9634 78.6581 13.4774C78.154 13.4763 77.6509 13.4763 77.1479 13.4774C77.1479 12.9645 77.1479 12.4516 77.1479 11.9387Z" fill="white"/>
<path d="M44 12.7342C45.3128 12.7386 46.6256 12.7266 47.9372 12.7397C48.9205 12.7517 49.9757 12.9514 50.721 13.64C51.522 14.3831 51.7173 15.59 51.4991 16.6223C51.3059 17.4561 50.6217 18.0661 49.872 18.4175C50.4624 18.6346 51.0277 19.0198 51.2776 19.6211C51.749 20.6229 51.4292 21.7534 51.6148 22.8065C51.6759 23.2091 51.9214 23.5409 52.1331 23.8759C51.5689 23.8945 51.0047 23.8879 50.4417 23.8857C49.9288 23.1338 50.0554 22.1812 50.0324 21.3213C50.0619 20.7222 49.9571 20.0729 49.5228 19.6277C49.178 19.2479 48.6629 19.0657 48.1588 19.0591C47.2792 19.0449 46.4008 19.0591 45.5212 19.0548C45.5212 20.6654 45.5212 22.2761 45.5212 23.8879C45.0149 23.8879 44.5074 23.8868 44 23.8879C44 20.17 44 16.4521 44 12.7342ZM45.5223 13.9259C45.5212 15.2376 45.5212 16.5503 45.5212 17.8631C46.3975 17.8511 47.2759 17.8904 48.1511 17.8424C48.8113 17.7987 49.5632 17.5586 49.86 16.9104C50.1645 16.2208 50.1547 15.3543 49.7443 14.7094C49.3799 14.1518 48.6826 13.9575 48.0529 13.9324C47.2094 13.9128 46.3658 13.9313 45.5223 13.9259Z" fill="white"/>
<path d="M53.1578 17.6067C53.6346 16.546 54.6048 15.65 55.7833 15.4831C56.6159 15.3794 57.5173 15.4711 58.2332 15.9403C58.8803 16.3692 59.2873 17.0829 59.4816 17.8205C59.678 18.5375 59.6529 19.2883 59.654 20.0249C57.8752 20.026 56.0954 20.0205 54.3167 20.027C54.333 20.8717 54.5044 21.8025 55.158 22.3983C55.7244 22.9047 56.5472 22.9221 57.2598 22.813C57.8698 22.7268 58.4274 22.4354 58.9043 22.0535C59.104 22.3842 59.3048 22.7148 59.5001 23.0487C58.9054 23.5431 58.1852 23.8944 57.4136 23.9959C56.3704 24.1389 55.2268 24.0516 54.3418 23.4285C53.4142 22.7803 52.9068 21.6683 52.8031 20.5629C52.7289 19.5709 52.7322 18.5277 53.1578 17.6067ZM55.1089 17.1494C54.6626 17.5968 54.4738 18.221 54.3691 18.8278C55.6284 18.8332 56.8888 18.8299 58.1481 18.8299C58.1295 18.1556 57.9844 17.4037 57.4246 16.9639C56.7447 16.475 55.6895 16.5219 55.1089 17.1494Z" fill="white"/>
<path d="M63.9579 15.5115C64.8811 15.3401 65.9516 15.4722 66.6424 16.1629C67.2524 16.7653 67.4193 17.6623 67.4379 18.4873C67.4466 20.2868 67.4368 22.0863 67.4423 23.8857C66.9348 23.8868 66.4285 23.8879 65.9222 23.8879C65.9232 22.1615 65.9211 20.4352 65.9232 18.7088C65.9167 18.1752 65.8709 17.5881 65.514 17.1625C65.1364 16.7337 64.5232 16.654 63.9841 16.6856C63.3282 16.7009 62.6779 17.0305 62.3199 17.5859C62.1933 17.7496 62.2217 17.9646 62.2141 18.1588C62.2217 20.0685 62.2152 21.9782 62.2174 23.8879C61.7143 23.8868 61.2101 23.8868 60.7071 23.8879C60.7071 21.1227 60.706 18.3585 60.7082 15.5944C61.1599 15.5944 61.6117 15.5944 62.0646 15.5933C62.0973 15.996 62.1355 16.3976 62.1606 16.8024C62.5917 16.1848 63.2038 15.661 63.9579 15.5115Z" fill="white"/>
<path d="M69.7568 16.3997C70.4574 15.6686 71.5094 15.3969 72.4969 15.4482C73.3427 15.4634 74.2287 15.7373 74.8137 16.3757C75.2545 16.8526 75.4389 17.515 75.4389 18.1534C75.4433 19.5393 75.4313 20.9241 75.4433 22.3089C75.4444 22.8425 75.5153 23.3739 75.6463 23.8912C75.1258 23.8846 74.6063 23.8879 74.0858 23.8879C74.0127 23.4907 73.9516 23.0935 73.9188 22.6919C73.3372 23.4328 72.4773 24.0189 71.5115 24.0505C70.6778 24.0887 69.7415 23.8824 69.209 23.1862C68.4408 22.155 68.5281 20.4374 69.6684 19.703C70.9146 18.8365 72.4991 19.0602 73.9287 19.0318C73.9199 18.3847 74.029 17.6263 73.5347 17.1178C72.9596 16.5416 71.9939 16.5121 71.2878 16.8471C70.8764 17.0425 70.6353 17.4517 70.5556 17.8871C70.0765 17.8969 69.5986 17.9002 69.1206 17.8926C69.1195 17.3306 69.3421 16.7828 69.7568 16.3997ZM70.237 21.5373C70.19 22.047 70.5087 22.5762 71.0183 22.705C72.0604 22.9745 73.2761 22.5118 73.8392 21.5865C74.0214 21.0998 73.8916 20.5585 73.9265 20.0511C73.1953 20.0696 72.4598 20.0041 71.732 20.0969C71.0074 20.1973 70.2675 20.7604 70.237 21.5373Z" fill="white"/>
<path d="M82.615 15.5104C83.4476 15.3794 84.3425 15.4198 85.1064 15.805C85.9477 16.2164 86.5905 17.0785 86.5566 18.0421C86.0732 18.0541 85.5898 18.0486 85.1074 18.0497C85.0332 17.7343 84.9459 17.4059 84.7059 17.1745C84.1602 16.57 83.2098 16.5023 82.4972 16.8188C81.9101 17.0883 81.6154 17.9068 82.0192 18.4458C82.3368 18.819 82.854 18.9096 83.3047 19.0329C84.2803 19.2501 85.3159 19.4858 86.0852 20.1667C86.8534 20.8346 86.8567 22.0841 86.2707 22.8709C85.7371 23.5922 84.8401 23.9567 83.966 24.0298C83.0395 24.1083 82.0454 24.0047 81.2531 23.4798C80.5285 23.0105 80.032 22.1921 80.0768 21.3136C80.5591 21.3115 81.0414 21.3126 81.5238 21.3126C81.6002 21.6759 81.67 22.0775 81.9625 22.3394C82.4622 22.7999 83.1923 22.9265 83.8492 22.8414C84.2803 22.7934 84.7233 22.6111 84.983 22.2488C85.2995 21.8178 85.2013 21.1445 84.7626 20.8335C84.1864 20.4275 83.4651 20.349 82.8027 20.1656C82.1 19.9692 81.3819 19.7062 80.8406 19.1988C80.2197 18.6052 80.1761 17.5881 80.5809 16.8624C81.0032 16.128 81.7911 15.6511 82.615 15.5104Z" fill="white"/>
<path d="M90.1512 15.5093C90.9817 15.3805 91.8743 15.4209 92.6371 15.805C93.4784 16.2175 94.1201 17.0785 94.0863 18.0421C93.6028 18.0541 93.1194 18.0486 92.6371 18.0497C92.5552 17.3797 92.0282 16.8035 91.3625 16.6802C90.7558 16.5743 90.0094 16.642 89.6045 17.1669C89.2629 17.5772 89.2684 18.2843 89.7191 18.6139C90.1796 18.9216 90.7427 19.0035 91.2708 19.1322C92.1253 19.3341 93.0201 19.6004 93.6716 20.2202C94.3122 20.8237 94.3613 21.8538 93.9673 22.6046C93.5647 23.3576 92.756 23.8104 91.9376 23.9676C91.058 24.1203 90.1218 24.0887 89.2869 23.7504C88.3179 23.3565 87.5453 22.3951 87.6064 21.3136C88.0888 21.3115 88.5711 21.3125 89.0534 21.3125C89.1298 21.6738 89.1996 22.0732 89.4866 22.3351C89.9897 22.8021 90.7241 22.9265 91.3854 22.8403C91.8176 22.7912 92.2617 22.6057 92.5181 22.2401C92.827 21.8113 92.7288 21.1489 92.2988 20.8379C91.7183 20.4264 90.9904 20.349 90.3236 20.1635C89.6231 19.967 88.9094 19.704 88.3703 19.1988C87.7505 18.6052 87.7057 17.5903 88.1095 16.8657C88.5329 16.128 89.323 15.6489 90.1512 15.5093Z" fill="white"/>
<path d="M96.1356 16.487C96.7947 15.745 97.8118 15.4209 98.7841 15.4449C99.6516 15.4329 100.569 15.6708 101.2 16.2961C101.692 16.7762 101.903 17.4757 101.902 18.1501C101.904 19.0973 101.9 20.0434 101.902 20.9906C101.907 21.9597 101.849 22.9451 102.108 23.8901C101.588 23.8857 101.068 23.889 100.548 23.8868C100.476 23.4907 100.418 23.0913 100.382 22.6919C99.811 23.4165 98.9772 23.9959 98.0333 24.0461C97.2662 24.0865 96.4193 23.9457 95.8519 23.3859C95.2146 22.7617 95.0662 21.7752 95.2528 20.9317C95.4416 20.1394 96.1334 19.5818 96.8733 19.3188C97.9995 18.8987 99.2184 19.0657 100.393 19.0307C100.377 18.4175 100.489 17.7201 100.074 17.2062C99.5534 16.5689 98.5822 16.5143 97.8609 16.7948C97.3949 16.9715 97.1047 17.4135 97.013 17.8893C96.5339 17.8958 96.056 17.9002 95.578 17.8915C95.5933 17.3742 95.7635 16.8581 96.1356 16.487ZM97.6263 20.2715C96.9628 20.5585 96.4979 21.3387 96.7729 22.0513C96.9704 22.6493 97.6732 22.8348 98.2374 22.777C99.0885 22.7192 99.979 22.2587 100.355 21.4675C100.436 21.0004 100.375 20.5214 100.39 20.0511C99.4716 20.1045 98.496 19.895 97.6263 20.2715Z" fill="white"/>
<path d="M106.739 15.5104C107.756 15.3139 108.971 15.5202 109.625 16.3954C110.277 17.2738 110.225 18.4284 110.218 19.4672C110.218 20.9404 110.217 22.4136 110.218 23.8868C109.712 23.8879 109.206 23.8879 108.699 23.8879C108.696 22.0852 108.706 20.2824 108.696 18.4797C108.677 17.8784 108.517 17.1636 107.923 16.8788C106.935 16.4325 105.518 16.7042 105.018 17.742C104.962 19.787 105.011 21.8396 104.996 23.8879C104.491 23.8868 103.987 23.8879 103.484 23.8879C103.484 21.1227 103.483 18.3585 103.485 15.5933C103.937 15.5944 104.389 15.5944 104.842 15.5933C104.874 15.996 104.911 16.3976 104.939 16.8013C105.369 16.1837 105.983 15.6588 106.739 15.5104Z" fill="white"/>
<path d="M112.778 16.2142C113.585 15.506 114.734 15.3369 115.765 15.4995C116.644 15.6446 117.446 16.1979 117.877 16.9803C118.134 17.4255 118.201 17.9449 118.214 18.4513C117.753 18.4557 117.293 18.4524 116.832 18.4567C116.782 17.9799 116.648 17.4855 116.29 17.1451C115.741 16.5471 114.783 16.5012 114.094 16.869C113.617 17.1276 113.345 17.6318 113.172 18.1272C112.923 18.8725 112.91 19.6735 112.977 20.4494C113.039 21.0779 113.218 21.7163 113.603 22.2281C114.279 23.076 115.73 23.0804 116.431 22.2598C116.694 21.9902 116.778 21.6126 116.839 21.2558C117.298 21.2602 117.758 21.2547 118.217 21.2634C118.231 21.9946 117.898 22.6973 117.345 23.1699C115.969 24.4892 113.429 24.3342 112.298 22.7705C111.604 21.8691 111.382 20.6982 111.425 19.5829C111.408 18.3454 111.834 17.0512 112.778 16.2142Z" fill="white"/>
<path d="M119.398 17.6045C119.876 16.5427 120.847 15.6468 122.029 15.482C122.859 15.3816 123.757 15.4722 124.471 15.9403C125.093 16.3495 125.491 17.0272 125.695 17.7311C125.916 18.4742 125.893 19.2577 125.893 20.0249C124.113 20.026 122.334 20.0205 120.556 20.0271C120.572 20.8717 120.743 21.8003 121.395 22.3962C121.962 22.9058 122.788 22.9221 123.502 22.8119C124.111 22.7268 124.668 22.4344 125.142 22.0535C125.343 22.3842 125.543 22.7148 125.739 23.0487C125.145 23.5431 124.425 23.8934 123.655 23.9959C122.639 24.1334 121.53 24.0581 120.653 23.4776C119.684 22.8414 119.149 21.701 119.043 20.5716C118.968 19.5753 118.971 18.5288 119.398 17.6045ZM121.346 17.1505C120.902 17.5979 120.713 18.221 120.608 18.8278C121.867 18.8332 123.127 18.83 124.387 18.83C124.362 18.328 124.305 17.8042 124.025 17.3731C123.486 16.4652 122.043 16.3921 121.346 17.1505Z" fill="white"/>
<path d="M77.1479 15.5944C77.6509 15.5944 78.154 15.5944 78.6581 15.5944C78.6571 18.3585 78.6581 21.1238 78.6581 23.8879C78.154 23.8868 77.6509 23.8868 77.1479 23.8879C77.1479 21.1238 77.1489 18.3585 77.1479 15.5944Z" fill="white"/>
<defs>
<filter id="filter0_i_114_4" x="0" y="0" width="36" height="36" filterUnits="userSpaceOnUse" color-interpolation-filters="sRGB">
<feFlood flood-opacity="0" result="BackgroundImageFix"/>
<feBlend mode="normal" in="SourceGraphic" in2="BackgroundImageFix" result="shape"/>
<feColorMatrix in="SourceAlpha" type="matrix" values="0 0 0 0 0 0 0 0 0 0 0 0 0 0 0 0 0 0 127 0" result="hardAlpha"/>
<feOffset/>
<feGaussianBlur stdDeviation="2"/>
<feComposite in2="hardAlpha" operator="arithmetic" k2="-1" k3="1"/>
<feColorMatrix type="matrix" values="0 0 0 0 0 0 0 0 0 0 0 0 0 0 0 0 0 0 0.25 0"/>
<feBlend mode="normal" in2="shape" result="effect1_innerShadow_114_4"/>
</filter>
<filter id="filter1_d_114_4" x="1.0947" y="4.00034" width="34.0008" height="28" filterUnits="userSpaceOnUse" color-interpolation-filters="sRGB">
<feFlood flood-opacity="0" result="BackgroundImageFix"/>
<feColorMatrix in="SourceAlpha" type="matrix" values="0 0 0 0 0 0 0 0 0 0 0 0 0 0 0 0 0 0 127 0" result="hardAlpha"/>
<feOffset/>
<feGaussianBlur stdDeviation="1"/>
<feComposite in2="hardAlpha" operator="out"/>
<feColorMatrix type="matrix" values="0 0 0 0 0.8 0 0 0 0 0.619608 0 0 0 0 0.952941 0 0 0 1 0"/>
<feBlend mode="normal" in2="BackgroundImageFix" result="effect1_dropShadow_114_4"/>
<feBlend mode="normal" in="SourceGraphic" in2="effect1_dropShadow_114_4" result="shape"/>
</filter>
</defs>
</svg>
